<?xml version="1.0" encoding="utf-8"?>
<!-- Generator: Adobe Illustrator 23.0.2, SVG Export Plug-In . SVG Version: 6.00 Build 0)  -->
<svg version="1.1" id="Layer_1" xmlns="http://www.w3.org/2000/svg" xmlns:xlink="http://www.w3.org/1999/xlink" x="0px" y="0px"
	 viewBox="0 0 600 208" style="enable-background:new 0 0 600 208;" xml:space="preserve">
<style type="text/css">
	.st0{fill:#FFFF00;}
	.st1{fill:#00FFFF;}
	.st2{fill:none;stroke:#000000;stroke-miterlimit:10;}
</style>
<g>
	<path class="st0" d="M24.37,14.66h16.85l16.66,24.51l16.56-24.51H91.3v63.86H70.9V55.54L57.88,74.69L44.77,55.54v22.98H24.37V14.66
		z"/>
	<path class="st0" d="M203.31,80.14c-4.02,0-7.66-0.51-10.91-1.53c-3.26-1.02-6.03-2.55-8.33-4.6c-2.3-2.04-4.07-4.63-5.31-7.75
		c-1.24-3.13-1.87-6.8-1.87-11.01V14.66h20.39v39.73c0,2.23,0.46,3.94,1.39,5.12c0.92,1.18,2.47,1.77,4.64,1.77
		c2.17,0,3.72-0.59,4.64-1.77c0.92-1.18,1.39-2.89,1.39-5.12V14.66h20.49v40.59c0,4.21-0.62,7.88-1.87,11.01
		c-1.24,3.13-3.03,5.71-5.36,7.75c-2.33,2.04-5.12,3.57-8.38,4.6C210.97,79.63,207.33,80.14,203.31,80.14z"/>
	<path class="st0" d="M315.42,14.66h21.25v47.1h17.62v16.75h-38.87V14.66z"/>
	<path class="st0" d="M437.59,31.41h-11.78V14.66h44.61v16.75h-11.78v47.1h-21.06V31.41z"/>
	<path class="st0" d="M552.96,14.66h21.64v63.86h-21.64V14.66z"/>
</g>
<g>
	<path class="st1" d="M24.37,129.54h16.85l16.66,24.51l16.56-24.51H91.3v63.86H70.9v-22.98l-13.02,19.15l-13.12-19.15v22.98H24.37
		V129.54z"/>
	<path class="st1" d="M170.55,129.54h37.62v16.75h-17.23v7.08h16.95v15.89h-16.95v7.37h17.9v16.75h-38.3V129.54z"/>
	<path class="st1" d="M287.13,193.4v-63.86h17.71c6,0,11.35,0.67,16.04,2.01c4.69,1.34,8.65,3.35,11.87,6.03
		c3.22,2.68,5.68,6.02,7.37,10c1.69,3.99,2.54,8.6,2.54,13.83c0,5.23-0.85,9.85-2.54,13.83c-1.69,3.99-4.15,7.32-7.37,10
		c-3.22,2.68-7.18,4.71-11.87,6.08c-4.69,1.37-10.04,2.06-16.04,2.06H287.13z M307.53,175.21c4.79,0,8.49-1.13,11.1-3.4
		c2.62-2.26,3.93-5.73,3.93-10.39c0-4.66-1.31-8.1-3.93-10.34c-2.62-2.23-6.32-3.35-11.1-3.35V175.21z"/>
	<path class="st1" d="M420.48,129.54h21.64v63.86h-21.64V129.54z"/>
	<path class="st1" d="M540.32,129.54h15.32l24.22,63.86h-20.1l-2.11-5.74h-19.34l-2.11,5.74h-20.1L540.32,129.54z M552.29,173.58
		l-4.31-11.2l-4.31,11.2H552.29z"/>
</g>
<g>
	<g>
		<g>
			<path class="st2" d="M24.24,14.49l16.4,1.36l7.84,11.79l9.4,14.14l8.43-14.76l7.5-13.64l17.83,0.82l2.31,13.23L89.1,40.2
				l2.62,12.77l1.07,12.78l-0.65,13.45L81.1,77.86l-9.49,0.03l1.17-10.86l-2.22-10.31l-7.22,7.68l-5.46,11.99l-4.98-12.36
				l-7.54-6.43l0.42,9.43L44.19,78l-9.62-0.95l-10.01,1.31l-0.73-12.62l1.84-12.77l-0.88-12.77l-1.53-12.77L24.24,14.49z"/>
		</g>
		<g>
			<path class="st2" d="M203.31,82.32l-11.15-2.96L184.98,73l-5.9-6.86l-0.32-10.88l-0.36-13.52l-1.72-13.53l0.66-13.2l9.75,1.13
				l9.03-0.57l2.62,12.34l0.23,13.25l-1.92,13.25l0.44,6.06l5.84,2.38l5.31-2.79l-0.03-5.65l2.68-13.24l-4.36-13.25l1.82-13.72
				l10.85,1.88l8.23,0.11l-0.52,12l0.57,13.53l-0.41,13.53l1.76,11.51l-5.58,8.43l-8.92,4.99L203.31,82.32z"/>
		</g>
		<g>
			<path class="st2" d="M316.66,15.68l9.39-1.31l8.95,1.8l2.73,10.26l-0.76,11.77l-1.19,11.78l1.04,11.57l16,1.76l2.96,16.36
				l-14.44-0.12l-12.96-3.3l-12.99,2.3l-1.96-12.8l3.43-12.77l-2.8-12.77l-1.15-12.9L316.66,15.68z"/>
		</g>
		<g>
			<path class="st2" d="M437.06,31.94l-12.11,0.08l-0.08-17.98l12.09,1.51l11.15-0.63l11.16-2.33l13.09,0.79l-2.97,17.31l-11.8-0.34
				l3.23,12.84l0.07,11.77L460,66.74l-1.4,11.73l-10.48,1.63l-11.2-0.98l2.43-12.37l-1.93-11.77l2.35-11.83L437.06,31.94z"/>
		</g>
		<g>
			<path class="st2" d="M551.32,13.27l12.46,0.6l12.69-0.79l-3.69,14.35l3.14,12.77l-2.06,12.77l0.93,12.78l0.71,13.54l-11.72-2.43
				l-12.34,2.95l3.85-14.05l-1.61-12.77l0-12.77l-3.22-12.62L551.32,13.27z"/>
		</g>
	</g>
</g>
<g>
	<g>
		<g>
			<path class="st2" d="M23.72,128.67l16.5,2.94l9.34,10.18l8.32,9.61l8.16-9.68l9.1-10.73l15.58-0.7l3.17,12.02l-1.72,12.77
				l1.46,12.77l-3.27,12.78l-0.23,11.84l-9.03-0.04l-9.6,0.44l0.88-10.96l-1.91-10.01l-3.99,9.51l-8.59,9.57l-8.36-9.75l-4.74-10.76
				l0.97,11.44l-1.41,11.11l-9.77-1.12l-12.2,3.1l3.29-14.36l0.24-12.77l-2.05-12.77l-0.46-12.75L23.72,128.67z"/>
		</g>
		<g>
			<path class="st2" d="M170.47,129.46l12.62-0.84l12.54-0.98l10.63,3.33l1.44,14.84l-16.59,0.91l-0.17,6.65l15.78,1.24l2.48,16.06
				l-17.61,0.09l-0.36,5.17l18.51-0.25l0.67,18.9l-14.32-0.43l-12.77-1.4l-13.79,1.66l2.76-13.79l-0.62-12.77l-1.51-12.77
				l2.79-12.78L170.47,129.46z"/>
		</g>
		<g>
			<path class="st2" d="M286.67,194.04l-2.03-13.41l4.87-12.77l-4.3-12.77l-0.53-12.78l1.02-14.76l19.14,1.58l16.59,0.47l11.53,7.72
				l7.15,10.26l0.03,13.83l0.72,14.15l-8.59,9.12l-10.87,8.44l-16.5,2.69L286.67,194.04z M308.28,174.95l8.72-5.02l7.94-8.5
				l-7.55-8.88l-7.55-4l0.13,12.87L308.28,174.95z"/>
		</g>
		<g>
			<path class="st2" d="M419.13,128.4l12.17,1.15l12.64-1.55l0.53,14.31l-2.92,12.77l0.48,12.77l-0.37,12.78l-0.97,11.55l-9.37-0.3
				l-11.61,2.19l2.84-13.43l-1.19-12.77l1.44-12.77l-1.85-12.8L419.13,128.4z"/>
		</g>
		<g>
			<path class="st2" d="M539.09,127.31l16.5,2.31l4.35,10.46l3.82,10.72l3.01,11.03l7.32,9.39l2.61,11.19l4.7,11.86l-11.6-0.65
				l-9.99-0.35l-1.31-7.38l-10.53,4.06l-9.5-1.95l-1.41,7.22l-10.92-3.38l-11.54,2.39l7.78-10.62l1.64-11.55l2.72-11.14l7.06-9.49
				l0.43-11.84L539.09,127.31z M549.91,172.67l-1.93-10.38l-4.02,11.24L549.91,172.67z"/>
		</g>
	</g>
</g>
<g>
	<g>
		<g>
			<path class="st2" d="M24.56,14.85l17.41-1.73l6.89,14.26l9.02,12.1l9.02-12.07l7.08-13.7l16.64,1.65l1.91,15.26l0.46,15.96
				l-0.87,15.97l-1.55,15.04l-19.17,0.06l-1.28-10.62l0.56-10.72l-5.09,9.62l-7.7,7.47l-7.23-7.82l-6.13-10.86l1.14,12.31
				l-1.46,10.49l-20.62,2.01l0.87-16.97l0.62-15.96L23.2,30.62L24.56,14.85z"/>
		</g>
		<g>
			<path class="st2" d="M203.31,79.21l-10.8-0.96l-9.56-2.98l-4.01-9.09l-1.79-10.94l0.09-13.52l0.49-13.53l-0.03-12.32l20.39-2.45
				l-2.14,14.47l2.32,13.25l-1.59,13.25l2.39,4.82l4.26,1.71l5.64-0.63l0.87-5.9l-1.88-13.24l0.32-13.25l1.86-12.03l18.85,0.08
				l1.14,12.24l0.88,13.53l-1.86,13.53l-0.51,11.28l-5.16,8.49l-9.71,2.15L203.31,79.21z"/>
		</g>
		<g>
			<path class="st2" d="M314.94,14.02l21.95,0.35l-1.08,15.99l2.26,15.7l-1.26,15.56l17.92-0.31l-1.78,16.15l-11.6,2.27l-12.96-2.67
				l-12.84,1.34l0.33-15.86l-2.27-15.96l3.1-15.98L314.94,14.02z"/>
		</g>
		<g>
			<path class="st2" d="M439,30.35l-13.1,1l-0.07-16.68l14.84,1.31l14.87-2.52l14.46,1.56l-0.2,15.95l-11.05,0.51l-1.58,15.62
				l0.31,15.7l0.5,14.81l-21.25,2.02l-0.04-16.84l0.84-15.7L439,30.35z"/>
		</g>
		<g>
			<path class="st2" d="M552.24,14.17l11.53-1.34l10.72,1.89l1.51,15.9l-0.11,15.96l0.51,15.97l-2.62,15.41l-10,1.11l-11.84,0.14
				l-0.11-16.66l1.05-15.96l0.45-15.97L552.24,14.17z"/>
		</g>
	</g>
</g>
<g>
	<g>
		<g>
			<path class="st2" d="M23.48,128.6l17.38,1.7l8.27,11.79l8.76,12.48l6.96-13.67l9.79-10.99l17.91-1.69l-0.13,17.28l-2.38,15.96
				l2.18,15.97l-1.4,15.33l-20.32,1.38l1.68-12.23l-1.07-12.15l-7.99,9.36l-5.22,11.2l-6.42-10.42l-7.23-11.3l0.39,13.31l-0.5,10.36
				l-19.77,1.14l0.51-15.97l1.27-15.96l-1.76-15.97L23.48,128.6z"/>
		</g>
		<g>
			<path class="st2" d="M171.74,130.48l11.35,0.58l12.54-2.47l12.15,1.25l-0.55,15.48l-16.3,0.94l0.61,5.7l16.14,1.65l-0.91,14.46
				l-15.33,2.31l0.17,4.66l17.9,0.89l-0.57,17.52l-12.85-1.11l-12.77-0.06l-11.88,0.38l-1.19-15.25l1.62-15.96l0.23-15.91
				L171.74,130.48z"/>
		</g>
		<g>
			<path class="st2" d="M288.07,192.37l-0.48-14.93l-0.74-15.96l0.88-15.97l-1.02-16.45l18.15-1.18l16.48,2.11l12.43,6.38
				l5.51,11.58l2.02,13.47l-1.43,13.72l-7.1,10.13l-12,5.65l-15.97,3.59L288.07,192.37z M306.21,175.67l12.71-3.52l3.34-10.73
				l-3.25-10.79l-10.87-2.69l1.04,13.6L306.21,175.67z"/>
		</g>
		<g>
			<path class="st2" d="M421.18,130.02l10.12-1.81l11.56,0.83l-1.8,16.47l2.72,15.96l-2.76,15.97l1.05,15.93l-10.76-1.28
				l-11.72,1.93l-0.47-16.57l0.64-15.96l2.44-15.93L421.18,130.02z"/>
		</g>
		<g>
			<path class="st2" d="M541.23,130.98l15.3-2.86l3.32,14.42l6.52,12.14l4.9,12.74l2.09,13.82l5.94,11.48l-19.58,0.8l-2.22-5.32
				l-19.16-0.46l-2.2,5.39l-19.03-0.94l3.03-11.88l4.49-12.91l6.78-12.03l5.71-12.35L541.23,130.98z M553.88,174.2l-5.9-10.14
				l-4.91,9.82L553.88,174.2z"/>
		</g>
	</g>
</g>
</svg>
